<svg xmlns="http://www.w3.org/2000/svg" width="1000" height="1000" viewBox="0 0 1000 1000">
  <defs>
    <style>
      .cls-1 {
        fill-rule: evenodd;
      }
    </style>
  </defs>
  <path class="cls-1" d="M650,225H525a25,25,0,0,1-25-25V75ZM325,600H250a25,25,0,0,1-25-25h0a25,25,0,0,1,25-25h75V500H250a25,25,0,0,1-25-25h0a25,25,0,0,1,25-25h75V400H250a25,25,0,0,1-25-25h0a25,25,0,0,1,25-25h75V250H469.113A74.709,74.709,0,0,1,450,200V75H150V650a75,75,0,0,0,75,75H325V600ZM850,425H725a25,25,0,0,1-25-25V275ZM725,475a75,75,0,0,1-75-75V275H350V850a75,75,0,0,0,75,75H850V475H725Zm50,300a25,25,0,0,1-25,25H450a25,25,0,0,1-25-25h0a25,25,0,0,1,25-25H750a25,25,0,0,1,25,25h0Zm0-100a25,25,0,0,1-25,25H450a25,25,0,0,1-25-25h0a25,25,0,0,1,25-25H750a25,25,0,0,1,25,25h0Zm0-100a25,25,0,0,1-25,25H450a25,25,0,0,1-25-25h0a25,25,0,0,1,25-25H750a25,25,0,0,1,25,25h0Z"/>
</svg>
