<svg xmlns="http://www.w3.org/2000/svg" width="1000" height="1000" viewBox="0 0 1000 1000">
  <defs>
    <style>
      .cls-1 {
        fill-rule: evenodd;
      }
    </style>
  </defs>
  <path class="cls-1" d="M750,149.959H625V125a50,50,0,0,0-50-50H425a50,50,0,0,0-50,50v24.959H250a75,75,0,0,0-75,75V275H825V224.959A75,75,0,0,0,750,149.959ZM425,125H575v24.959H425V125ZM225,299.959V925H775V299.959H225ZM375,400V824.865h0c0,0.045,0,.09,0,0.135a25,25,0,0,1-50,0c0-.045,0-0.09,0-0.135h0V400h0c0-.014,0-0.027,0-0.041a25,25,0,0,1,50,0c0,0.014,0,.027,0,0.041h0Zm150,0V824.864h0c0,0.046,0,.09,0,0.136a25,25,0,0,1-50,0c0-.046,0-0.09,0-0.136h0V400h0c0-.014,0-0.028,0-0.041a25,25,0,0,1,50,0c0,0.013,0,.027,0,0.041h0Zm150,0V824.865h0c0,0.045,0,.09,0,0.135a25,25,0,0,1-50,0c0-.045,0-0.09,0-0.135h0V400h0c0-.014,0-0.027,0-0.041a25,25,0,0,1,50,0c0,0.014,0,.027,0,0.041h0Z"/>
</svg>
